
<svg xmlns="http://www.w3.org/2000/svg">
	<symbol id="icon-illustr" viewBox="-49 141 512 512">
	<path d="M135.7,359.4c17.8,0,32.2-14.5,32.2-32.2c0-17.8-14.5-32.2-32.2-32.2s-32.2,14.5-32.2,32.2
		C103.5,345,118,359.4,135.7,359.4z M135.7,312.5c8.1,0,14.7,6.6,14.7,14.7s-6.6,14.7-14.7,14.7s-14.7-6.6-14.7-14.7
		S127.6,312.5,135.7,312.5z"/>
	<path d="M121,397.7c0-17.8-14.5-32.2-32.2-32.2s-32.2,14.5-32.2,32.2s14.5,32.2,32.2,32.2S121,415.4,121,397.7z M88.8,412.4
		c-8.1,0-14.7-6.6-14.7-14.7s6.6-14.7,14.7-14.7s14.7,6.6,14.7,14.7S96.9,412.4,88.8,412.4z"/>
	<path d="M112.2,459.4c-17.8,0-32.2,14.5-32.2,32.2c0,17.8,14.5,32.2,32.2,32.2s32.2-14.5,32.2-32.2
		C144.5,473.8,130,459.4,112.2,459.4z M112.2,506.4c-8.1,0-14.7-6.6-14.7-14.7c0-8.1,6.6-14.7,14.7-14.7s14.7,6.6,14.7,14.7
		C127,499.7,120.4,506.4,112.2,506.4z"/>
	<path d="M400.2,203.8c-2.8-2.8-6.4-4.2-11-4.2c-3.3,0-7.1,0.7-11.3,2.2c-6.9,2.4-15.4,6.8-25.2,13.1c-22.3,14.4-49,37.1-71.3,60.7
		l-1.7,1.8l-2.1-1.4c-28-18.3-60.7-27.9-94.7-27.9c-18.1,0-36,2.8-53.1,8.3C46.9,282.9-3.5,368.1,12.7,454.5
		c12.5,66.8,65.5,121.4,131.8,135.8c12.7,2.7,25.5,4.1,38.2,4.1c8.6,0,17.3-0.6,25.8-1.9c17.6-2.7,32.1-15,37.7-32.2
		c5.8-17.8,1.3-36.9-11.8-50c-5-5-7.8-11.6-7.8-18.7c0-7.1,2.8-13.7,7.8-18.7c5-5,11.7-7.8,18.7-7.8c7.1,0,13.7,2.8,18.7,7.8
		c9.2,9.2,21.4,14.3,34.4,14.3c0,0,0,0,0,0c5.3,0,10.5-0.8,15.5-2.5c17.2-5.6,29.5-20.1,32.1-37.7c6.5-43.1-3.2-86.6-27.3-122.5
		l-1.4-2.1l1.8-1.7c18.2-17.2,43.8-44.6,61.1-69.9C399.2,234.3,410.7,214.2,400.2,203.8z M336.6,444.3c-1.7,11.2-9.3,20.1-20.3,23.7
		c-3.2,1-6.6,1.6-10.1,1.6c-5.9,0-14.5-1.6-22-9.1c-8.3-8.3-19.3-12.9-31.1-12.9c-11.8,0-22.8,4.6-31.1,12.9
		c-8.3,8.3-12.9,19.3-12.9,31.1c0,11.7,4.6,22.8,12.9,31.1c10,10,10.5,23.2,7.5,32.2c-3.6,11-12.5,18.6-23.7,20.3
		c-7.6,1.1-15.4,1.7-23.2,1.7c-11.4,0-23-1.3-34.5-3.7C88.7,560.3,41.1,511.3,29.9,451.3c-8.7-46.6,3.3-93.8,32.9-129.5
		c29.6-35.7,73.3-56.2,119.8-56.2c10,0,20.2,1,30.3,2.8c18.2,3.4,36.2,10.4,52,20.2l3,1.8l-2.3,2.7c-17.1,20.1-29,37.7-34.3,51
		l-1,2.5l-2.6-0.7c-3.9-1.1-8-1.7-12.1-1.7c-11.8,0-22.8,4.6-31.1,12.8c-5.2,5.2-9,11.6-11.1,18.6c-3.9,13.1-15.9,23.1-30.6,25.5
		c-3.3,0.5-5.9,2.8-6.9,5.9c-1,3.1-0.2,6.5,2.1,8.9l3.3,3.3c14.1,14.1,32.8,21.8,52.7,21.8c19.9,0,38.6-7.7,52.7-21.8
		c11.8-11.8,15.9-29.1,10.6-45l-0.9-2.7l2.6-1.1c13.3-5.5,30.7-17.3,50.5-34.2l2.6-2.2l1.9,2.9C334.2,368.7,342.3,406.8,336.6,444.3
		z M234.4,407c-10.8,10.8-25.1,16.7-40.3,16.7c-9.9,0-19.6-2.5-28-7.3l-4.5-2.6l4.5-2.6c11.9-7,20.6-17.9,24.3-30.4
		c1.3-4.2,3.5-8,6.7-11.2c5-5,11.6-7.7,18.7-7.7s13.7,2.8,18.7,7.7C244.7,379.8,244.7,396.6,234.4,407z M342.2,280
		c-13.4,14.8-40,42.5-68.8,62.2c-8.7,6-16.2,10.2-22.1,12.6l-6.5,2.6l2.6-6.5c2.4-6,6.6-13.4,12.6-22.1
		c14.9-21.6,38.2-47.3,62.4-68.7l2.1-1.9l19.6,19.6L342.2,280z M383.8,223.8c-6.2,13-19,29.5-26.1,38.2l-2.1,2.6L338,247.1l2.7-2.1
		c8.7-6.8,25.4-19.2,39.2-25.2l7.4-3.2L383.8,223.8z"/>
	</symbol>
</svg>
