<svg xmlns="http://www.w3.org/2000/svg">
	<symbol id="icon-illustr" viewBox="-49 141 512 512">
<path class="st0" d="M415.2,550.7L415.2,550.7c-1.4-6.4-7.3-11.1-14-11.1h-1.2V377.1c9.9-9.1,15.6-21.9,15.6-35.3
	c0-26.4-21.5-47.9-48-47.9c-18.8,0-35.8,10.9-43.6,28h-48.6v-99.8c0-9.3-7.5-16.8-16.8-16.8h-31.2c-9.3,0-16.8,7.5-16.8,16.8v99.8
	H30.9c-9.3,0-16.8,7-16.8,15.6v202h-1.2c-6.5,0-12.3,4.3-13.9,10.5c-1.5,5.7,0.5,11.6,5.2,15.1l12.5,9.3
	c12.3,9.2,27.5,14.2,42.8,14.2h294.3c15,0,29.3-4.6,41.5-13.3l14.3-10.2C414.2,561.9,416.4,556.2,415.2,550.7z M319.7,345.2h-44.4
	V340h44.3c0,0.6,0,1.2,0,1.9C319.5,343,319.6,344.1,319.7,345.2z M275.2,407v-43.8h49.4c0.4,0.8,0.8,1.6,1.3,2.4L275.2,407z
	 M275.2,539.5v-76h16.2v76H275.2z M367.5,312c16.5,0,29.9,13.4,29.9,29.8s-13.4,29.8-29.9,29.8s-29.9-13.4-29.9-29.8
	S351,312,367.5,312z M292.7,445.5h-17.5v-15.2l62.5-51c8.5,6.7,19,10.4,29.8,10.4c4.9,0,9.7-0.7,14.4-2.2v152h-72.4v-77.2
	C309.5,453,302,445.5,292.7,445.5z M32.1,345.2V340h178.3v5.3H32.1z M257.2,543.1c-1.1,0.6-2.2,1.3-3.2,2c-2,1.4-4.4,2.2-6.9,2.2
	h-7.7v-34.5c0-7-4.4-13.3-10.9-15.7V223.4h28.7V543.1z M353.8,570.6H59.5c-11.5,0-22.8-3.8-32-10.6l-3.2-2.4h117.5
	c2.2,0,4.4,0.6,6.3,1.8l2.3,1.4c4.8,3,10.2,4.5,15.9,4.5h80.8c6.3,0,12.3-1.9,17.4-5.6c2-1.4,4.4-2.2,6.9-2.2h117.8l-4.4,3.1
	C375.7,567.2,365,570.6,353.8,570.6z M138.8,458.8v17.8h-17.5c-9.3,0-16.8,7.5-16.8,16.8v46.2H32.1v-33.3h29.9
	c1.7,0,3.4-0.5,4.9-1.4L138.8,458.8z M156.8,477.1v-87.4h28.7l0,157.6h-16.2v-53.9C169.3,485.7,164.1,479.1,156.8,477.1z
	 M186.7,371.7h-31.2c-9.3,0-16.8,7.5-16.8,16.8v48.9l-79.3,50.9H32.1v-125h178.3v14.5c-3.4-0.6-6.9-0.3-10.1,0.8
	C197.2,374.3,192.2,371.7,186.7,371.7z M122.5,494.6h28.7v46.4c-3-1-6.3-1.5-9.4-1.5h-19.3V494.6z M203.6,547.3V514h17.8v33.3H203.6
	z M203.6,416.2c2.3,0.4,4.6,0.4,6.9,0v2.1h-6.9V416.2z M210.4,399.9c-0.9,1-2.1,1.6-3.4,1.6c-1.3,0-2.6-0.6-3.4-1.6v-5.8
	c0.9-1,2.1-1.6,3.4-1.6c1.3,0,2.6,0.6,3.4,1.6V399.9z M210.4,436.3V496h-6.9l0-59.7H210.4z"/>
	</symbol>
</svg>
