<svg xmlns="http://www.w3.org/2000/svg">
	<symbol id="icon-webcode" viewBox="-49 141 512 512">
	<path class="st0" d="M33.1,297H385"/>
	<path d="M181.9,271H349c5.5,0,10-4.5,10-10s-4.5-10-10-10H181.9c-5.5,0-10,4.5-10,10C171.9,266.5,176.4,271,181.9,271z"/>
	<path d="M94.5,271c2.6,0,5.2-1.1,7.1-2.9c1.9-1.9,2.9-4.4,2.9-7.1s-1.1-5.2-2.9-7.1c-1.9-1.9-4.4-2.9-7.1-2.9
		c-2.6,0-5.2,1.1-7.1,2.9c-1.9,1.9-2.9,4.4-2.9,7.1s1.1,5.2,2.9,7.1C89.3,269.9,91.9,271,94.5,271z"/>
	<path d="M64.9,271c2.6,0,5.2-1.1,7.1-2.9c1.9-1.9,2.9-4.4,2.9-7.1s-1.1-5.2-2.9-7.1c-1.9-1.9-4.4-2.9-7.1-2.9
		c-2.6,0-5.2,1.1-7.1,2.9c-1.9,1.9-2.9,4.4-2.9,7.1s1.1,5.2,2.9,7.1C59.7,269.9,62.3,271,64.9,271z"/>
	<path d="M124.1,271c2.6,0,5.2-1.1,7.1-2.9c1.9-1.9,2.9-4.4,2.9-7.1s-1.1-5.2-2.9-7.1c-1.9-1.9-4.4-2.9-7.1-2.9s-5.2,1.1-7.1,2.9
		c-1.9,1.9-2.9,4.4-2.9,7.1s1.1,5.2,2.9,7.1C118.9,269.9,121.5,271,124.1,271z"/>
	<path d="M139.1,423.7c2,2,4.5,2.9,7.1,2.9s5.1-1,7.1-2.9c3.9-3.9,3.9-10.2,0-14.1l-26.7-26.7l26.7-26.7c3.9-3.9,3.9-10.2,0-14.1
		c-3.9-3.9-10.2-3.9-14.1,0l-33.7,33.7c-3.9,3.9-3.9,10.2,0,14.1L139.1,423.7z"/>
	<path d="M260.7,423.7c2,2,4.5,2.9,7.1,2.9s5.1-1,7.1-2.9l33.7-33.7c3.9-3.9,3.9-10.2,0-14.1l-33.7-33.7c-3.9-3.9-10.2-3.9-14.1,0
		c-3.9,3.9-3.9,10.2,0,14.1l26.7,26.7l-26.7,26.7C256.8,413.5,256.8,419.8,260.7,423.7z"/>
	<path d="M178.1,432.1c1.6,0.9,3.3,1.4,5.1,1.4c3.4,0,6.8-1.8,8.6-4.9l47.6-81.1c2.8-4.8,1.2-10.9-3.6-13.7
		c-4.8-2.8-10.9-1.2-13.7,3.6l-47.6,81.1C171.8,423.1,173.3,429.3,178.1,432.1z"/>

		<path d="M399,271v-14c0-23.2-18.8-42-42-42H57c-23.2,0-42,18.8-42,42v28v24.1v20.1V420v117c0,23.2,18.8,42,42,42h300
			c23.2,0,42-18.8,42-42v-86V329.2v-20.1V271z M389,537c0,17.7-14.3,32-32,32H57c-17.7,0-32-14.3-32-32V257c0-17.7,14.3-32,32-32
			h300c17.7,0,32,14.3,32,32V537z"/>
		<path d="M357,225H57c-17.7,0-32,14.3-32,32v280c0,17.7,14.3,32,32,32h300c17.7,0,32-14.3,32-32V257C389,239.3,374.7,225,357,225z
			 M379,537c0,12.1-9.9,22-22,22H57c-12.1,0-22-9.9-22-22V307h344V537z M379,287H35v-30c0-12.1,9.9-22,22-22h300
			c12.1,0,22,9.9,22,22V287z"/>
		<path d="M163.2,481h166.3c5.5,0,10-4.5,10-10s-4.5-10-10-10H163.2c-5.5,0-10,4.5-10,10C153.2,476.5,157.7,481,163.2,481z"/>
		<path d="M75.2,481h49c5.5,0,10-4.5,10-10s-4.5-10-10-10h-49c-5.5,0-10,4.5-10,10S69.6,481,75.2,481z"/>
		<path d="M75.2,529h216.1c5.5,0,10-4.5,10-10s-4.5-10-10-10H75.2c-5.5,0-10,4.5-10,10S69.6,529,75.2,529z"/>
	</symbol>
</svg>
