<svg xmlns="http://www.w3.org/2000/svg">
	<symbol id="icon-graphics" viewBox="-49 141 512 512">
	<path d="M365.6,297.2H256.7l-33.4-50.1h111.1v13.8c0,4.9,3.8,8.8,8.6,8.8h45.1c4.8,0,8.8-3.9,8.8-8.8v-45.1c0-4.8-3.9-8.8-8.8-8.8
		H343c-4.8,0-8.6,3.9-8.6,8.8v13.8H79.6v-13.8c0-4.8-3.9-8.8-8.8-8.8H25.7c-4.8,0-8.6,3.9-8.6,8.8v45.1c0,4.9,3.8,8.8,8.6,8.8h45.1
		c4.8,0,8.8-3.9,8.8-8.8v-13.8h110.9l-33.4,50.1H48.2c-17.2,0-31.2,14.1-31.2,31.3v182c0,17.3,14,31.3,31.2,31.3h114.9L133,572
		c-3,3-3,6.9-1.9,9.6c1.1,2.6,3.8,5.4,8.1,5.4h135.4c4.3,0,7-2.8,8.1-5.4c1.1-2.6,1.2-6.5-1.9-9.6l-30.1-30.1h114.9
		c17.3,0,31.3-14.1,31.3-31.3v-182C396.9,311.3,382.9,297.2,365.6,297.2z M351.8,224.5h27.7v27.6h-27.7V224.5z M62.2,252.1H34.5
		v-27.6h27.7V252.1z M158.2,327.3c15.9-23.8,33.9-50.8,35.5-53.1l4.6-6.9v76.2l-1.7,0.6c-12.6,4.5-21,16.3-21,29.5
		c0,17.3,14.1,31.3,31.3,31.3s31.3-14.1,31.3-31.3c0-13.2-8.4-25.1-20.9-29.5l-1.7-0.6v-76.2l4.6,6.9c2.8,4.1,58.1,87.1,60.1,90.1
		l1.8,2.7l-3,1.1c-21.3,7.6-35.7,28-35.7,50.8v13.8h-72.8v-13.8c0-22.7-14.4-43.1-35.8-50.8l-3-1.1l1.8-2.7
		C134.4,363,145.7,346.1,158.2,327.3z M206.9,359.9c7.6,0,13.8,6.2,13.8,13.8s-6.2,13.8-13.8,13.8s-13.8-6.2-13.8-13.8
		S199.3,359.9,206.9,359.9z M266,450.2v29.1H148v-29.1H266z M34.5,328.6c0-7.6,6.2-13.8,13.8-13.8h97.2l-36,54c-1.8,2.7-2,6.1-0.4,9
		c1.6,2.9,4.4,4.6,7.7,4.6c20.1,0,36.5,16.3,36.5,36.3v13.8h-13.9c-4.8,0-8.6,3.9-8.6,8.8v37.8H34.5V328.6z M253.4,569.5h-93
		l27.6-27.6h37.8L253.4,569.5z M379.4,510.6c0,7.6-6.2,13.8-13.8,13.8H48.2c-7.6,0-13.8-6.2-13.8-13.8v-13.8h344.9V510.6z
		 M379.4,479.2h-96v-37.8c0-4.8-3.9-8.8-8.8-8.8h-13.8v-13.8c0-20,16.3-36.3,36.3-36.3c3.3,0,6.2-1.7,7.7-4.6c1.6-2.9,1.4-6.3-0.4-9
		l-36-54h97.2c7.6,0,13.8,6.2,13.8,13.8V479.2z"/>
	</symbol>
</svg>
