<svg xmlns="http://www.w3.org/2000/svg">
    <symbol id="taiji" viewBox="0 0 43.938 44.017">
	<path d="M14.809,30.182c0.05,0.034,0.104,0.06,0.157,0.09c0.109,0.064,0.218,0.126,0.333,0.175
		c0.064,0.028,0.13,0.049,0.197,0.071c0.107,0.038,0.215,0.071,0.326,0.097c0.071,0.016,0.142,0.028,0.213,0.039
		c0.109,0.017,0.218,0.026,0.328,0.031c0.042,0.002,0.083,0.012,0.124,0.012c0.041,0,0.081-0.007,0.121-0.009
		c0.06-0.002,0.12-0.007,0.18-0.013c0.1-0.01,0.198-0.025,0.296-0.046c0.058-0.012,0.115-0.022,0.171-0.037
		c0.105-0.027,0.208-0.063,0.31-0.104c0.047-0.018,0.094-0.032,0.14-0.053c0.146-0.064,0.289-0.139,0.425-0.229
		c0.169-0.11,0.329-0.239,0.478-0.388c1.17-1.17,1.17-3.073,0-4.243c-1.169-1.17-3.073-1.171-4.243,0c-1.17,1.17-1.17,3.073,0,4.243
		C14.503,29.958,14.652,30.077,14.809,30.182z"/>
	<path d="M35.33,11.31c-0.362-0.444-0.751-0.875-1.165-1.289c-3.211-3.211-7.48-4.979-12.021-4.979
		s-8.81,1.769-12.021,4.979C6.912,13.232,5.143,17.5,5.143,22.042c0,4.541,1.769,8.81,4.979,12.021h0
		c0.041,0.041,0.085,0.074,0.126,0.114c0.373,0.365,0.754,0.716,1.151,1.04c0.083,0.068,0.173,0.125,0.258,0.191
		c0.367,0.289,0.738,0.571,1.123,0.825c0.028,0.019,0.058,0.033,0.086,0.052c2.736,1.79,5.931,2.757,9.277,2.757
		c3.355,0,6.561-0.972,9.302-2.772c0.02-0.012,0.04-0.022,0.06-0.035c0.398-0.263,0.784-0.555,1.164-0.855
		c0.071-0.056,0.146-0.104,0.217-0.16c0.44-0.36,0.868-0.745,1.279-1.156c3.314-3.314,4.971-7.667,4.971-12.021
		C39.135,18.232,37.867,14.423,35.33,11.31z M28.405,19.313c-0.065,0.014-0.133,0.022-0.199,0.032
		c-0.093,0.013-0.187,0.022-0.28,0.027c-0.069,0.003-0.139,0.006-0.208,0.004c-0.165-0.005-0.33-0.017-0.49-0.048l0,0
		c-0.16-0.031-0.313-0.082-0.465-0.138c-0.031-0.012-0.063-0.017-0.095-0.028c-0.134-0.055-0.26-0.129-0.385-0.202
		c-0.045-0.027-0.094-0.045-0.139-0.074c-0.133-0.088-0.254-0.194-0.373-0.305c-0.029-0.027-0.063-0.047-0.092-0.075
		c-0.017-0.017-0.027-0.035-0.043-0.052c-0.125-0.131-0.24-0.268-0.339-0.415c-0.021-0.033-0.034-0.069-0.055-0.103
		c-0.082-0.136-0.161-0.273-0.221-0.421c-0.01-0.024-0.014-0.05-0.022-0.075c-0.06-0.156-0.111-0.316-0.143-0.482
		c-0.005-0.024-0.003-0.05-0.007-0.074c-0.057-0.34-0.057-0.686,0.002-1.024c0.003-0.016,0.001-0.032,0.005-0.049
		c0.032-0.167,0.083-0.327,0.143-0.485c0.01-0.023,0.013-0.049,0.022-0.072c0.061-0.148,0.14-0.288,0.224-0.426
		c0.02-0.031,0.031-0.066,0.052-0.098c0.11-0.166,0.237-0.322,0.382-0.467c1.169-1.17,3.072-1.17,4.242,0
		c0.145,0.145,0.271,0.301,0.382,0.467c0.02,0.03,0.031,0.063,0.049,0.093c0.085,0.139,0.165,0.28,0.227,0.431
		c0.01,0.023,0.013,0.05,0.022,0.074c0.059,0.157,0.11,0.317,0.143,0.483c0.006,0.028,0.004,0.058,0.009,0.087
		c0.05,0.305,0.049,0.614,0.005,0.92c-0.007,0.047-0.005,0.095-0.014,0.142c-0.031,0.161-0.082,0.315-0.139,0.468
		c-0.011,0.029-0.015,0.061-0.027,0.09c-0.058,0.142-0.134,0.275-0.214,0.407c-0.022,0.038-0.037,0.079-0.062,0.115
		c-0.093,0.14-0.202,0.267-0.318,0.391c-0.022,0.024-0.039,0.053-0.063,0.076c-0.02,0.021-0.044,0.033-0.064,0.053
		c-0.127,0.12-0.259,0.232-0.401,0.327c-0.037,0.024-0.077,0.039-0.114,0.062c-0.133,0.08-0.267,0.157-0.409,0.215
		c-0.025,0.01-0.052,0.014-0.077,0.023C28.709,19.241,28.558,19.281,28.405,19.313z M12.058,33.12
		c-0.13-0.118-0.261-0.234-0.391-0.354c-0.041-0.039-0.085-0.073-0.125-0.113c-0.001-0.001-0.003-0.003-0.004-0.004
		c-2.833-2.833-4.394-6.6-4.394-10.606s1.56-7.773,4.394-10.606c2.833-2.833,6.6-4.394,10.606-4.394
		c1.343,0,2.658,0.176,3.921,0.516c-0.008,0.002-0.017,0.005-0.024,0.007c-0.366,0.072-0.727,0.175-1.082,0.293
		c-0.095,0.031-0.188,0.063-0.282,0.099c-0.362,0.133-0.72,0.282-1.065,0.464c-0.008,0.004-0.016,0.01-0.024,0.014
		c-0.338,0.18-0.664,0.39-0.982,0.615c-0.082,0.058-0.162,0.117-0.243,0.178c-0.32,0.244-0.632,0.503-0.925,0.795
		c-0.438,0.438-0.822,0.911-1.151,1.41c-0.014,0.021-0.024,0.043-0.038,0.063c-0.149,0.229-0.289,0.464-0.415,0.703
		c-1.782,3.396-1.248,7.7,1.604,10.551c0.169,0.169,0.328,0.345,0.476,0.526c0.024,0.03,0.045,0.063,0.069,0.093
		c0.123,0.155,0.242,0.313,0.35,0.477c0.004,0.006,0.007,0.012,0.011,0.018c1.517,2.314,1.52,5.336,0.011,7.654
		c-0.008,0.012-0.015,0.025-0.023,0.038c-0.104,0.156-0.218,0.307-0.335,0.456c-0.029,0.037-0.054,0.076-0.083,0.112
		c-0.148,0.181-0.306,0.356-0.475,0.525c-0.313,0.313-0.651,0.589-1.008,0.833c-0.008,0.006-0.016,0.013-0.024,0.018
		c-0.351,0.238-0.722,0.439-1.106,0.608c-0.01,0.004-0.019,0.009-0.029,0.014c-0.377,0.162-0.767,0.288-1.162,0.382
		c-0.021,0.005-0.041,0.011-0.061,0.015c-0.385,0.088-0.776,0.14-1.169,0.162c-0.036,0.002-0.072,0.004-0.109,0.005
		c-0.391,0.016-0.783,0-1.172-0.049c-0.025-0.003-0.051-0.008-0.077-0.012c-0.4-0.055-0.796-0.142-1.184-0.266
		c-0.005-0.002-0.01-0.004-0.016-0.006c-0.401-0.13-0.79-0.297-1.162-0.497c-0.373-0.201-0.73-0.438-1.069-0.712
		C12.079,33.134,12.068,33.128,12.058,33.12z"/>
    </symbol>
    <symbol id="tgame" viewBox="0 0 43.938 44.017">
	<path d="M39.429,20.063l-2.999-4.865c-0.745-1.209-2.038-1.931-3.46-1.931c-0.338,0-0.672,0.048-0.997,0.131
		c-0.217-1.91-1.823-3.405-3.791-3.405h-3.036c-0.709-0.883-1.781-1.436-2.979-1.436c-0.293,0-0.586,0.033-0.873,0.101l-8.27,1.926
		c-0.998,0.231-1.846,0.839-2.387,1.709c-0.133,0.214-0.242,0.438-0.33,0.669l-3.92,1.934c-0.92,0.453-1.606,1.236-1.936,2.207
		s-0.26,2.011,0.193,2.93l6.273,12.713c0.65,1.32,1.969,2.141,3.441,2.141c0.591,0,1.161-0.135,1.694-0.398l2.755-1.359
		c-0.293,0.885-0.16,1.141-0.033,1.377c0.555,1.02,1.799,1.02,2.895,1.02h2.852c0.477,0,0.733-0.078,1.547-1.473
		c0.814,1.395,1.07,1.473,1.548,1.473h2.851c1.098,0,2.34,0,2.895-1.021c0.228-0.418,0.474-0.896-1.709-4.894
		c0.064-0.137,0.111-0.281,0.158-0.426c0.502-0.089,0.984-0.265,1.422-0.534l4.868-2.999C40.007,24.478,40.603,21.971,39.429,20.063
		z M37.053,23.948l-3.798,2.34c-0.318-0.602-0.895-1.002-1.238-1.232c-0.008-0.005-0.018-0.012-0.025-0.017
		c-0.219-0.146-0.576-0.306-0.975-0.46c-0.324-0.124-0.672-0.245-1-0.353c-0.266-0.087-0.516-0.164-0.726-0.228
		c-0.204-0.406-0.53-1.022-0.835-1.496c-0.033-0.05-0.063-0.09-0.095-0.137c-0.05-0.072-0.103-0.155-0.149-0.216
		c-0.285-0.366-0.627-0.7-1.079-0.92c-0.274-0.133-0.587-0.225-0.973-0.237c-0.126-0.365-0.15-0.759-0.06-1.144
		c0.084-0.35,0.26-0.658,0.497-0.915c0.126-0.136,0.265-0.262,0.427-0.361l0.451-0.278l0.886-0.546l1.655-1.02l1-0.616l0.876-0.54
		c0.038-0.023,0.083-0.033,0.124-0.055c0.295-0.156,0.619-0.251,0.953-0.251c0.723,0,1.379,0.366,1.758,0.979l2.998,4.865
		C38.322,22.08,38.021,23.353,37.053,23.948z M30.468,33.525h-2.373c-0.238-0.377-0.617-1.047-0.963-1.684
		c-0.061-0.111-0.121-0.223-0.179-0.33l-0.355-0.67l-0.466-0.877l-0.063-0.115l-0.078,0.148l-0.449,0.844l-0.355,0.668
		c-0.057,0.107-0.119,0.221-0.179,0.332c-0.346,0.639-0.725,1.307-0.962,1.684h-2.375c-0.264,0-0.609,0-0.877-0.021
		c0.166-0.406,0.449-1,0.785-1.662c0.019-0.035,0.036-0.07,0.055-0.105c0.137-0.268,0.279-0.543,0.43-0.824
		c0.012-0.023,0.024-0.047,0.037-0.07c0.108-0.203,0.219-0.408,0.331-0.613c0.07-0.129,0.141-0.258,0.212-0.387
		c0.02-0.035,0.039-0.069,0.059-0.104c0.098-0.177,0.196-0.352,0.293-0.522l0.377-0.66l0.183-0.32l-0.009-0.004l-0.104-0.043
		l-0.929-0.39c-0.314-0.132-0.64-0.284-0.937-0.434c-0.043-0.021-0.08-0.042-0.121-0.063c-0.219-0.112-0.422-0.223-0.582-0.318
		c0.09-0.073,0.213-0.165,0.385-0.279c0.076-0.051,0.238-0.124,0.447-0.206c0.418-0.166,1.037-0.374,1.643-0.559
		c0.162-0.05,0.323-0.098,0.479-0.142l0.432-0.124l0.037-0.076l0.158-0.33c0.104-0.216,0.248-0.504,0.402-0.795
		c0.07-0.134,0.142-0.266,0.213-0.394c0.1-0.178,0.197-0.342,0.284-0.479c0.056-0.086,0.107-0.164,0.153-0.223
		c0.307-0.396,0.383-0.396,0.563-0.396c0.03,0,0.055,0.002,0.08,0.004c0.122,0.009,0.221,0.066,0.445,0.348
		c0.015,0.018,0.023,0.025,0.039,0.045c0.281,0.361,0.795,1.351,1.053,1.889l0.193,0.406l0.286,0.082l0.147,0.042
		c0.016,0.005,0.032,0.01,0.048,0.015c0.275,0.079,0.565,0.167,0.851,0.259c0.006,0.002,0.012,0.003,0.017,0.005
		c0.278,0.09,0.546,0.18,0.788,0.266c0.413,0.147,0.743,0.281,0.865,0.362c0.051,0.034,0.091,0.063,0.135,0.094
		c0.101,0.071,0.188,0.136,0.25,0.186c-0.073,0.043-0.162,0.093-0.25,0.142c-0.053,0.029-0.105,0.058-0.162,0.088
		c-0.252,0.135-0.54,0.277-0.838,0.413c-0.131,0.059-0.262,0.117-0.391,0.172l-0.061,0.025l-0.92,0.386l-0.061,0.025l0.02,0.035
		l0.124,0.218l0.415,0.728c0.047,0.082,0.094,0.167,0.141,0.25c0.164,0.29,0.328,0.586,0.491,0.887
		c0.161,0.295,0.317,0.59,0.468,0.879c0.475,0.906,0.887,1.744,1.104,2.273C31.08,33.525,30.732,33.525,30.468,33.525z
		 M12.712,31.861L6.439,19.147c-0.217-0.44-0.25-0.938-0.092-1.402c0.156-0.464,0.485-0.839,0.925-1.056l2.904-1.433l0.937-0.462
		l0.951-0.47l2.823-1.393c0.255-0.126,0.528-0.19,0.81-0.19c0.111,0,0.215,0.026,0.321,0.045c0.343,0.061,0.651,0.213,0.904,0.443
		c0.122,0.111,0.228,0.239,0.318,0.384c0.032,0.053,0.075,0.096,0.103,0.152l0.514,1.039l1.781,3.609l2.814,5.706
		c-0.492,0.155-1.081,0.354-1.57,0.556l-1.244-2.521l-1.781-3.61l-1-2.027l-0.338-0.683c-0.146-0.297-0.385-0.514-0.662-0.646
		c-0.379-0.18-0.831-0.197-1.236,0.003l-0.471,0.232l-1.688,0.832l-0.921,0.455l-0.921,0.454l-1.281,0.632
		c-0.701,0.347-0.99,1.197-0.645,1.898l4.854,9.835l0.215,0.434c0.346,0.701,1.195,0.99,1.898,0.643l0.049-0.023l0.824-0.406
		l0.461-0.229l0.455-0.224l0.917-0.453l1.341-0.662c0.266,0.174,0.582,0.359,1,0.564c0.004,0.003,0.008,0.005,0.012,0.007
		c-0.129,0.233-0.247,0.449-0.361,0.66c-0.075,0.139-0.145,0.27-0.213,0.398l-0.35,0.174l-0.723,0.355l-1.201,0.594l-1.151,0.566
		l-1.552,0.766C14.277,33.136,13.15,32.746,12.712,31.861z M18.183,11.436l1.9-0.442l1.665-0.388
		c0.138-0.032,0.278-0.048,0.419-0.048c0.446,0,0.854,0.165,1.176,0.436c0.293,0.248,0.516,0.584,0.607,0.983l0.004,0.017
		l0.445,1.908l0.832,3.573c-0.522,0.523-0.9,1.175-1.076,1.913c-0.038,0.16-0.047,0.32-0.066,0.481l-1.389-5.968l-0.023-0.098
		c-0.178-0.763-0.939-1.236-1.701-1.059l-1.709,0.397l-0.129-0.261c-0.11-0.223-0.246-0.426-0.392-0.619
		c-0.208-0.274-0.446-0.518-0.715-0.724c-0.023-0.019-0.048-0.034-0.071-0.052L18.183,11.436z M28.182,11.993
		c1.012,0,1.835,0.823,1.835,1.835v0.552l-1.655,1.02v-0.081c0-0.782-0.635-1.417-1.417-1.417h-0.492l-0.443-1.908H28.182z"/>
	<path d="M28.362,19.577c-0.011,0.006-0.022,0.006-0.032,0.012c-0.209,0.129-0.342,0.323-0.428,0.534
		c-0.129,0.315-0.129,0.68,0.064,0.993c0.06,0.097,0.142,0.167,0.223,0.238c0.055,0.049,0.11,0.091,0.173,0.127
		c0.342,0.196,0.772,0.218,1.132-0.005c0.521-0.319,0.684-1.003,0.363-1.525C29.542,19.439,28.879,19.281,28.362,19.577z"/>
	<path d="M32.017,20.07c-0.139,0.022-0.275,0.069-0.401,0.147c-0.521,0.322-0.685,1.005-0.362,1.527
		c0.175,0.284,0.458,0.449,0.764,0.5c0.255,0.042,0.525,0.008,0.764-0.139c0.521-0.321,0.684-1.004,0.361-1.525
		C32.899,20.186,32.449,19.998,32.017,20.07z"/>
	<circle cx="35.637" cy="22.038" r="1.11"/>
    </symbol>
    <symbol id="yoga" viewBox="0 0 43.938 44.017">
<path d="M41.428,32.468l-1-0.008c0,0.012-0.008,0.092-0.025,0.201c-1.4-1.115-3.787-3.184-5.063-5.238
	c-0.91-1.466-1.824-3.207-2.631-4.743c-0.982-1.872-1.83-3.488-2.508-4.314c-1.012-1.234-3.513-2.212-4.773-2.646v-0.723
	c1.214-0.913,2-2.365,2-3.998V8c0-2.757-2.243-5-5-5c-2.757,0-5,2.243-5,5v3c0,1.633,0.786,3.085,2,3.998v0.723
	c-1.261,0.434-3.762,1.411-4.773,2.646c-0.677,0.826-1.525,2.442-2.508,4.314c-0.806,1.536-1.72,3.277-2.631,4.743
	c-1.441,2.32-4.296,4.656-5.548,5.619c-0.106-0.328-0.118-0.549-0.119-0.568H3.429H1.85c0,0.088,0.023,1.793,1.579,3.402
	c0.365,0.377,0.813,0.748,1.366,1.092c0.875,0.545,1.962,0.691,2.745,0.725c0.367,1.725,1.67,2.984,3.448,3.307
	c0.296,0.055,0.604,0.084,0.923,0.084c0.306,0,0.676-0.035,1.071-0.084c2.099-0.258,5.326-1.131,8.478-1.986l0.969-0.264
	C27.02,39.988,30.963,41,32.946,41c2.227,0,3.92-1.363,4.361-3.355c0.696-0.078,1.501-0.254,2.176-0.676
	c0.893-0.555,1.512-1.182,1.945-1.785c0.981-1.371,1-2.633,1-2.709L41.428,32.468z M19.429,8c0-1.654,1.346-3,3-3s3,1.346,3,3v3
	c0,1.654-1.345,3-3,3s-3-1.346-3-3V8z M38.426,35.271c-0.299,0.188-0.693,0.295-1.086,0.357c-0.415-2.377-2.308-3.529-3.662-4.248
	c-0.498-0.645-2.055-2.674-2.969-4.035c-1.127-1.679-3.314-4.906-3.314-4.906l-0.786,0.532l-1.169,0.181l1.084,7.033l0.49,0.225
	c0.039,0.018,3.887,1.777,5.436,2.584c0.03,0.016,0.059,0.031,0.088,0.047c0.053,0.027,0.102,0.055,0.152,0.082
	c1.566,0.838,2.738,1.674,2.738,3.482c0,1.455-0.975,2.395-2.482,2.395c-1.326,0-4.035-0.621-6.745-1.318
	c1.812-0.537,3.294-1.006,3.962-1.221l1.33,0.635l0.863-1.805l-7.455-3.563l-12.309,3.504l0.548,1.924l11.582-3.297l2.794,1.336
	c-1.444,0.445-3.378,1.021-5.348,1.553l-1.232,0.336c-3.45,0.938-7.361,2-9.024,2c-1.508,0-2.482-0.941-2.482-2.396
	c0-1.889,1.291-2.715,2.978-3.596c1.546-0.805,5.393-2.537,5.431-2.555l0.497-0.225l1.083-7.163L18.429,23l-0.828-0.561
	c0,0-2.188,3.228-3.314,4.906c-0.934,1.391-2.538,3.479-3,4.074c-1.354,0.713-3.333,1.854-3.768,4.275
	c-0.551-0.035-1.217-0.143-1.668-0.424c-0.297-0.186-0.538-0.379-0.753-0.572c1.306-0.994,4.457-3.547,6.118-6.221
	c0.949-1.528,1.88-3.303,2.703-4.869c0.893-1.7,1.736-3.307,2.284-3.976c0.691-0.843,3.135-1.814,4.514-2.229l0.712-0.215v-1.291
	c0.646,0.133,1.354,0.133,2,0v1.292l0.713,0.214c1.378,0.414,3.822,1.386,4.513,2.229c0.548,0.669,1.391,2.275,2.283,3.976
	c0.822,1.566,1.754,3.341,2.703,4.869c1.536,2.473,4.348,4.844,5.795,5.971C39.172,34.728,38.85,35.007,38.426,35.271z
	 M29.755,29.474c-0.563-0.264-1.071-0.498-1.419-0.658l-0.283-1.834c0.365,0.54,0.714,1.059,0.996,1.479
	C29.26,28.775,29.502,29.121,29.755,29.474z M15.189,29.546c0.272-0.379,0.532-0.75,0.758-1.086
	c0.239-0.357,0.527-0.785,0.831-1.234l-0.259,1.711C16.19,29.087,15.716,29.304,15.189,29.546z"/>
</svg>
